<mxfile host="65bd71144e">
    <diagram id="HIP3nbAZw_EuaXWnEj3U" name="Page-1">
        <mxGraphModel dx="837" dy="571" grid="1" gridSize="10" guides="1" tooltips="1" connect="1" arrows="1" fold="1" page="1" pageScale="1" pageWidth="850" pageHeight="1100" math="0" shadow="0">
            <root>
                <mxCell id="0"/>
                <mxCell id="1" parent="0"/>
                <mxCell id="7" value="http://ics2o.mths.ca" style="swimlane;whiteSpace=wrap;html=1;" parent="1" vertex="1">
                    <mxGeometry x="30" y="30" width="760" height="480" as="geometry"/>
                </mxCell>
                <mxCell id="9" value="" style="rounded=1;whiteSpace=wrap;html=1;" vertex="1" parent="7">
                    <mxGeometry x="55" y="230" width="80" height="20" as="geometry"/>
                </mxCell>
                <mxCell id="11" value="volume of a pyramid, with JS" style="rounded=0;whiteSpace=wrap;html=1;" vertex="1" parent="7">
                    <mxGeometry y="20" width="760" height="50" as="geometry"/>
                </mxCell>
                <mxCell id="16" value="&lt;span style=&quot;&quot;&gt;V = ( l x w x h ) / 3&lt;/span&gt;" style="text;html=1;align=center;verticalAlign=middle;resizable=0;points=[];autosize=1;strokeColor=none;fillColor=none;" vertex="1" parent="7">
                    <mxGeometry y="140" width="120" height="30" as="geometry"/>
                </mxCell>
                <mxCell id="17" value="&lt;span style=&quot;&quot;&gt;Formula&lt;/span&gt;" style="text;html=1;align=center;verticalAlign=middle;resizable=0;points=[];autosize=1;strokeColor=none;fillColor=none;" vertex="1" parent="7">
                    <mxGeometry y="110" width="70" height="30" as="geometry"/>
                </mxCell>
                <mxCell id="20" value="please enter integer for dimensions&amp;nbsp;" style="text;html=1;align=center;verticalAlign=middle;resizable=0;points=[];autosize=1;strokeColor=none;fillColor=none;" vertex="1" parent="7">
                    <mxGeometry y="190" width="210" height="30" as="geometry"/>
                </mxCell>
                <mxCell id="21" value="calculate" style="rounded=1;whiteSpace=wrap;html=1;" vertex="1" parent="7">
                    <mxGeometry x="20" y="370" width="80" height="20" as="geometry"/>
                </mxCell>
                <mxCell id="23" value="" style="rounded=1;whiteSpace=wrap;html=1;" vertex="1" parent="7">
                    <mxGeometry x="55" y="290" width="80" height="20" as="geometry"/>
                </mxCell>
                <mxCell id="24" value="" style="rounded=1;whiteSpace=wrap;html=1;" vertex="1" parent="7">
                    <mxGeometry x="55" y="260" width="80" height="20" as="geometry"/>
                </mxCell>
                <mxCell id="27" value="width:" style="text;html=1;align=center;verticalAlign=middle;resizable=0;points=[];autosize=1;strokeColor=none;fillColor=none;" vertex="1" parent="7">
                    <mxGeometry y="255" width="50" height="30" as="geometry"/>
                </mxCell>
                <mxCell id="28" value="height:" style="text;html=1;align=center;verticalAlign=middle;resizable=0;points=[];autosize=1;strokeColor=none;fillColor=none;" vertex="1" parent="7">
                    <mxGeometry x="-5" y="285" width="60" height="30" as="geometry"/>
                </mxCell>
                <mxCell id="30" value="mm" style="text;html=1;align=center;verticalAlign=middle;resizable=0;points=[];autosize=1;strokeColor=none;fillColor=none;" vertex="1" parent="7">
                    <mxGeometry x="140" y="255" width="40" height="30" as="geometry"/>
                </mxCell>
                <mxCell id="29" value="mm" style="text;html=1;align=center;verticalAlign=middle;resizable=0;points=[];autosize=1;strokeColor=none;fillColor=none;" vertex="1" parent="7">
                    <mxGeometry x="140" y="225" width="40" height="30" as="geometry"/>
                </mxCell>
                <mxCell id="31" value="mm" style="text;html=1;align=center;verticalAlign=middle;resizable=0;points=[];autosize=1;strokeColor=none;fillColor=none;" vertex="1" parent="7">
                    <mxGeometry x="140" y="285" width="40" height="30" as="geometry"/>
                </mxCell>
                <mxCell id="26" value="length:" style="text;html=1;align=center;verticalAlign=middle;resizable=0;points=[];autosize=1;strokeColor=none;fillColor=none;" vertex="1" parent="7">
                    <mxGeometry x="-5" y="225" width="60" height="30" as="geometry"/>
                </mxCell>
                <mxCell id="33" value="" style="shape=image;verticalLabelPosition=bottom;labelBackgroundColor=default;verticalAlign=top;aspect=fixed;imageAspect=0;image=data:image/png,iVBORw0KGgoAAAANSUhEUgAAATAAAAE0CAYAAACram/lAAAABHNCSVQICAgIfAhkiAAAIABJREFUeJzsnXd8U9X7x9833S2lpUDZIruyZO8pgoCigCJ+2S4UfooiblQCKm5BQYaAIOJgiTJEBWVWQIYilD1FNrTQ3abN+f1xk/a2SZvRJE3a8369eNEk995zkt58+txzP8/zKEIIgUQikfgguuKegEQikTiLFDCJROKzSAGTSCQ+ixQwiUTis0gBk0gkPosUMIlE4rNIAZNIJD6LFDCJROKzSAGTSCQ+ixQwiUTis0gBk3iE+Ph4Hn30USIiIqhatarlBunxcCAWvl8Gu696foLuRiRxeO8zjJlbhUbvPciODM8M+/HHH6MoCj/++KNnBvQwXi1g69ato3v37gQEBHD06NHino7ESQwGAwMGDKB9+/b89ddf3HvvvXk3MCbAwk9h5Qb45xBczSyeiboTJZiqtYbRMyKVrGz7d0tNTaVLly7s37/f4SEzMjKYOXMmFSpU4I477nB4f1/ApQJ2//33oygKiqLQs2dPUlNTc157/vnnCQgIIDAwkPnz59t1vGbNmtG7d2+ysrJcOU2vJjExkX79+rFnz57inorL2LdvH9u2baNz587Url2bOXPm5N1AVxYGPw4xQerjYH/PT9LtBBAR1ZBbQwMd2is0NJRJkyZx3333ce3aNYf23b17N6dPn2bUqFGEh4fb3P7ChQsMGjSI4OBgdDodTZs2Zc2aNQ6N6WlcKmArVqygb9++ACxYsIDQ0NCc19577z3atGnDokWLeOyxx+w6XrVq1ahZs6Yrp+jVZGdn89hjj1GrVi1atmxZ3NNxGYcOHUIIQUhISAFb+EFURQj1Ux+GBHhsbr5Aly5dCA8PZ+rUqXbvI4Rg+vTpAHZ93zIzM+nXrx+rVq1i/vz5bN26laCgIO69914OHz7s9NzdjUsFTFEUxowZA2BxzX3+/HlOnjxJz549XTlkiWLbtm18//33PPfccyiKYvF6bGwsPXv2pGPHjlSqVIkWLVpw7NgxADZs2ECvXr0IDg7m4MGDdOjQgcjISM6fP09KSgrjx4+nZs2aVK9enbZt2xIXF2fXcW2RmprKCy+8QL169WjVqhUxMTHMnz8fo9EIwM8//8wrr7wCQLt27WjYsCGXL18u/KA3jsOG1bB8JWz6C5LzXXOJDDj2J6z/EZYth5+2wZV8i0rpl2D7z7B8GXy/FnYcgnRz5SgBN0/DprWwfDn8sgOu275sNRqNHDx4MM9zSUlJXLlyxea+eeefxMkjb/L8/Go01vvRZu5o1t0wFLh5QEAAd911F3PnzuX69et2DXHp0iVWr15Nhw4dqFu3ru0pCcGQIUNYvHgxw4YNo1OnTjz33HMAFu/Zm3D5Gljnzp2JiIhg3rx5GAy5v5R169bRpk0bKlSokPOcrZPfGkuXLqV9+/ZERkaSlJREVlYW7777LnXr1qVdu3YYjUaWLl1Ku3btKFOmDFOmTKFBgwYoikLnzp35/fffGTlyJGXLlsXf35+PP/4YbUk0W192d2E0Gpk6dSo1atSgSpUqFq8nJCTQq1cvDAYDsbGxHD9+nIsXL/L8888DavSm0+nIyMhg9OjR9OrVi6ZNm2IwGBg8eDDbt29n//79nD17lurVq9OnTx9SUlJsHrcwsrKyeOihh1iyZAmxsbHs2bOHmTNn8vjjjzNr1iwAevfujV6vB2Dnzp0cOnSISpUqFX7gXeshdh/EHYAtP8LMpXDDJGLGRFg5A775CeL+hfPH4M/f4POlcNN03mT8C5/PgY074dx5OLAHflkNlwyAgFO/wvQvYcseOHsSdvwCM7+A84WL2NSpU2nSpAkrVqwA1Mv9Xr160bJlS9uirMVwiD2JdRnQaxmf9RlMyMV56H/bRkohuzRu3JjU1FS7xWT58uUYDAbGjx+Pn5+fze2DgoKYMGECQ4YMAdTLyQULFuRcSnotwg2MGjVKAOLw4cNCCCEMBoNo06aNWLduXc42BoNB9OvXT1SuXFlcvnxZCCHEhg0bBCBmzJiRs923334rAHHkyBEhhBAnTpwQAwcOFCEhISIxMVFkZ2eLv//+W9SuXVu0adNGZGdni9OnT4v77rtPKIoi1qxZIxITE8XixYsFIDp37ixOnDghrl+/Lvr06SMCAgLE1atXc+Z09913i1atWomEhASRlZUlBg4cKGrUqCGSk5MLfc/p6emiVq1aArD6b+3atYXun5SUJMLDw0WHDh2E0Wi0eD0jI0MsWbJErF+/XgghhNFoFO3atRNNmzYVBoNBCCHElClTBCCOHz+es9/evXsFkOez//HHHwUgdu3aZddxC2LPnj0CEB988EHOc1lZWaJdu3aiYsWKOZ/Z7NmzBSDOnj1byNEyhPjxPSEmTRLi9wtCGLOFOL9LiKmT1OeWHhXCKIRI+kt9PGmqEKcyhMi6IsSnpm32m35HJ75TH0/fKIRBCHHsayEmvSPE6Qwh0k4I8d4kISa9L8ShRCGMGUL8Mk3dfuF+dYwC2Lt3rwgJCRGA+Oabb0Tnzp0FIIYOHSoyMzML/axUksXeHyuI+m8PEn+kmz+w42L+Z4j6c2aJ89kF77ls2TIBiBUrVtgcJT09XdStW1eUK1dO3Lhxw4555ZKVlSU6dOggABEQECA2b97s0P6exi13IUePHg3AN998A8C///7LxYsX6dixY842+/fvZ82aNUyYMIHo6GgAunfvTrt27ZgyZQopKdb/HtWpUydnewCdTkejRo0ICwvLee7WW2+lQoUKhIWF0bVrV8LDw7nvvvsIDAykUaNG1KlTh6ioKEaOHInBYODqVfW2/T///MO6deuYPHkykZGR+Pn5MXLkSM6dO2czCtPpdNxxxx1069bN4l/37t3zzNkamZmZJCUlERQUZPXyMTAwkKFDh1K5cmVeeukl+vXrx8GDB/NEj2aioqJyft69ezcAEydOpHPnznTu3JnJkydTuXJlMjIyHDpufszHbtGiRc5zfn5+tGrViqtXr3LhwgWbx7BKcBAoOqjaEjqZIvbTh8AAhMXAkP7Qrw8EXoW4w2C+ekwzRfz+poXyhD9g9R8Q1h0eHgaVA+DcbkgFCIIzO2DDZrhuiu4un1LHKIAWLVqwadMmAgMDGTJkCNu2bWPw4MF88cUXBAQ4uW6nBFPGHxAFX3UAJCcnA1C+fHmbh9y3bx8nTpxg+PDhREREODQdPz8/li5dyrZt26hduzb33HMPJ06ccOgYnsQtt3uaNWtG9erVWbx4Ma+++io//PADPXr0yPNhFnby79y5kwsXLlCvXj2XzUlRFItQ2ryobP6yar/s77zzDqBe5pq/7IUREBBg991VawQGBhIREUFmZiZCCAsRu3nzJoMHD+aff/5h5syZvPXWW3Tt2jXnxC4I8x3cr776isaNG1u87uxxIfdzs0fsHEJnfu9+UCkSuAYZyWAElEAISodt2+FcAXOscSe0uQx/XoJ/foV/AqHd/VBDwPUE00aJcFBjTQgLgzJBNqfWuHFjmjdvzq5duwAYMmQIgYGO3Vl0hgMHDhAcHGz1d6hFCMEnn3wCwBNPPOHUWNWrV6d69erMmjWLHj16sGDBgpzvg7fhFgELCQlh+PDhvPPOO+zbt48lS5YwY8aMPNu47eQvAra+7IVhMBh46qmnOHXqlMVriqIwdepUWrVqVeD+YWFhdOzYkSNHjpCZmUlQUN4v0/Lly/nll1+IjY2lQ4cOdn9uzZo1A2DTpk1W35OzxwVy3s++ffvo0aMHoK7F7d69m+joaOuGVXvIETABGaZ1qdBy4Adc/B0WbgcCoP1A6FATlk2Dc5r9M7KgzUPQ7F/4/Tc4cRN2Locaz0KwKVIKbwnj+oADgVNKSgr9+/dn165dtGvXjt27d3PfffexevVq+vXr59x7tQODwcCGDRsYNWqUzQjsypUr/PDDD7Ru3Zr69evbPcaBAwfo27cvw4YNyxEr81q009GlB3CbkXXYsGGAGs0kJSXRvHnzPK9rT34z9p78/v7+ZGVlFbrY7wzaL7ujGI1GNmzYwMaNGy3+bdiwweYir6IovPLKK5w7d46LFy9avG6+RDZ7665cucL58+dtzqtNmzZ06dKFCRMmsGzZMtLS0jh79iyTJ09mx44dTh8XoHnz5tx111188MEHXLp0CYDNmzeza9cupkyZkuey3iHM0acxCfabPov6jSHACP+aLmfKtYMeTVGvv7Rkw95vYOYyKNMYho6GOn5AFtzIgGqmL3XSfjiamLtb6gXY9Eehl5AvvfQSGzdupH///mzatIlNmzbh7+/PwIEDOXPmjHPv1Q5iY2O5fv06kyZNsrq8oGXlypVkZGQwfvx4/P3tj09uueUWMjIy+PDDD5k1axYLFy5k+PDh6HQ6hg4dWtS34D7ctbiWmZkpGjduLAAxYcIEi9cNBoO46667RMWKFcXFixeFEEJs3LhRAGLOnDk52+VfxBdCiDlz5ghAfP/990IIIU6dOiWqVauWs4gvhBCPPvqoKFOmjEhMTBRCCJGYmChCQkLEk08+mXMc82J2XFxczpy7dOkiAgICxNKlS0Vqaqo4c+aM0Ov14o8//nDxJ2RJVlaWGDp0qHj66actFvKTk5PFgAEDRGRkpHjkkUfExx9/LO6++24BiMcee0xMmzZNVKhQQQCie/fuYsOGDTn73rhxQzz++OMiKipKACImJkZ8/PHHIi0tzeZxMzIyCp1zcnKyGDdunKhVq5Zo2bKlaNSokfjqq69y5r9o0SJRs2bNnBsosbGxBRxJs4i/7HchtvwqxBcfqI8/+l6IJNMK98mVpkX8T4T4Y7cQa74wPZ4kxKo/hbiULMS2mUJMmizEit+F2LpGiLcmCTFphhCXDEIYU4RY/bFpnylCfP6lEF98pj6eulyIQt7u1atXxcSJE0VaWlrOczt37hSLFi2yeuMlLyni4JaBYsA7iPqTwsR9y6eJYxlXxfZfuovOkxD1J90iRqxbLi7mW8hPSUkR3bp1E7t377ZxfPVGT4MGDUTZsmVFfHy8ze3zs3//ftG+ffucG09t27YV27Ztc/g4nkQRwn3XcDNmzGDcuHHs37/f6q3YlJQUXn31VdasWUNUVBTp6em8/PLLDB06FEVR+Pzzz3n//fc5efIk7du3Z8aMGbRs2ZLExETuv/9+Nm7cSMOGDRkwYADffvstZ86cYfz48YSGhvLpp5/mrO/Mnj2b0aNHs2LFCiIiIvjoo49o1qwZw4YN48iRI7Rv35758+fTsGFDbt68yQsvvMDKlSuJj48nJiaG0aNHM2bMGIKDg931UeWQlJTE0KFDee2112jTpo3bx/MeMmH1dNiXm71BWDQ0bgtdm0Oo6WLBmAy/r4Sdp8EYBvWbQNZ+OJGmvt72Mah/GNb/DddSAAWi60OPvtDAtAabnQw7f4VdhyAxC4KioGEL6NQGyrt/PUviOtwqYBKJROJOvDqZWyKRSApDCphEIvFZpIBJJBKfRQqYRCLxWaSASSQSn0UKmEQi8VmkgEkkEp9FCphEIvFZpIBJJBKfRQqYRCLxWaSASSQSn0UKmEQi8VmkgEkkEp9FCphEIvFZpIBJJBKfRQqYRCLxWaSASSQSn0UKmEQi8VmkgEkkEp9FCphEIvFZpIBJJBKfRQqYpEg00Cs00BfebFUicRdSwCROkZAB9Xo8ZHqk8M+1Yp2OpJQiBUziMEYBH/0Np8q3A0AIeOhXOJpQzBOTlDqkgEkc5mQiLDgEos0I9QkhOHzgLx7dBJdTC99XInElUsAkDmEUMD8OLqUCIWXUJwWwaTo7LsL/bYVkQ3HOUFKakAImcYiTibD4qOmBMJr+B/Z8h/HmRX44Ba/vgszs4pqhpDQhBUxiN3miL0BVLkDnB9mZsH022QLmHIRP/1G3l0jciRQwid3kib4ABTUCE7oA9Yltc8CQRno2vL0Hlp8ohklKShVSwCR2YRl9kXsJqQuAmq0h+Srs/hqAG5kwfjtsv+j5uUpKD1LAJHaRP/oCQDFdIwoFuo9Xf940XfVVABdT4fHfpb1C4j6kgElsYjX6ghyhQlGgxSAoVwMuxsHRjTmbHLmBtFdI3IYUMIlNrEZfaNbA0IHOHzqPVV/4fVqe7aS9QuIupIBJCqXA6AvyXkICdBqNEhgKh3+Gy0dyjwHSXiFxC1LAJIVSUPQFEBVkWsRXTKdRaBRhHUeCEIRt/yTPttJeIXEHUsAkBVJo9AV0qmxWotxqFMZu41AUhYwdi4kwxOfZXtorJK5GCpikQAqLvhSgVbQpAtOcRmnlY/Br1Ies9FRaHf+cwHxnmLRXSFyJFDCJVWxFX2UCINmgRmBCE4EJIKvbswDsXj6D55tmWpxk0l4hcRVSwCRWsRZ96QB/k1aVD4ZqYZYRGEC523uiq96UxKsXqHpsBSNvszy+tFdIXIEUMIkFBUVftSPgnlvVn5tVgMhAjQ9MQ5kAaHDf0wB8PG0677aHu26xHEfaKyRFRQqYxIKCoq/HGsLcbrDsLpjZFUsbhYm0LPjf0GFQpiKnDuzm0J5YZnWF28vnPaa0V0iKihQwSR4Ki75GNIDoUBhUF6qFgRDWLyETM6FehWCq934SgEnvTadWWfi8O1Qvk/e40l4hKQpSwCR5KCz6qhKWb2NTKpHIdwmZaYT/kuH5Z59CFxDM9p9XcfrUKVpHw6yuEBmY9zDSXiFxFilgkhxsRV/5EaZ6YAqWXYni4mFMu2gGD34QY3Y2n332GYoCfWvC+x2R9gqJS5ACJsnBoegLqBWuCljZQEsB238N/HXwwnOqpWLBggUkJSXhp8DIBvBSS8uTT9orJI4iBUwC2I6+kg3w4h/wfCwkpKuv3RKuroFFBOkoF5R3v2vpcCEFmjdvTrdu3bh58yYLFy4EINAPXmyOtFdIiowUMAlgO/radRmm/Q3zDsHRG+rr5kV8P52OmuF5972RAf8mqT8/+6wahX00bTrZ2ertxjIBSHuFpMhIAZPYtfa19ypkCQj1hwoh6nPmNTA/RbEQsGQDnEpUf25/Zz/Cq9bh3zOnWbZqTc420SFIe4WkSEgBk9iMvrKMsPeK+nzlUHLESpjuQuoUhUZRefcXwMHr6s9hgTpuuWccAG99MD3PdtJeISkKUsBKOfZEXzcy4LBpYb1VNASYzpq46+ol5M1MHU3yRVEA+66p/4cFgH7cwxASwaE/t7Br71852ygg7RUSp5ECVsqx587jtXQ4bbocbFMpd7v4DDU0yshWaBxlaY04mwQppnWsnnXDqdrzMQDeeDdvFCbtFRJnkQJWirHX93XgurqmFR4IjcrlPq914kcGWVot4jXCVzYInn76adD5s/GH77h4Ma8iSXuFxBmkgJVi7PV97b2q/h8VBHUicp83r4EpikJUMNQum/dYiZlwLln9WQFGtK9JeKv+GLMymfzxbIv5SHuFxFGkgJVS7I2+0rPgL5OA1Y2AiiHarXMrsob4WQpYphEOaYqyVg6FQY+rlopvFswhLS3NYl7SXiFxBClgpRR7o6/4DDhxU/25VTToNKZ7oREwRYHbK1iOc1AjYDoF3hnSkduatSYp4SrffPON1blJe4XEXqSAlUIcyXm8lKpeBvop0KJi/uOoa2CKqalHYyt3Ivdfy2uDiA6F115Qo7Bp06blXIbmR9orJPYgBawU4kjO494rYDBCuSC4rVze14J0qoD569TTqGYZCkwp0jJo0CBq1KhBXFwcGzduxBrSXiGxBylgpQxHoi8hYLfJwFoxRI2KtDQqr4ZAVULV68qIIApNKTITEBDA2LFqE9zp0/NaKrRIe4XEFlLAShmORF/JhtxF+Cbl1QV2LX5K3ggsItBSwLQpRVpGPfYEwaFh/LR+PfsPHi5wvtJeISkMKWClCEfrfWkX8POvf1nDX0ehKUVawsqWo3zn4SAEr7//aaHHlfYKSUFIAStFOFrv63wyXEmDED/rApZtVG8F+un8cp4rLKVIS5lAePLpZ0BRWL9sMdfj4y030m4v7RUSK0gBKyU4Gn2BuqZVLggalIOmVoTppimVKDUr11thK6XIjAI80i2GsNv7kJWRylvTP7f5HqS9QpIfKWClBEejL4CYcrB1IPx0D1QKtXz96A11DexKau5pZCulSEvlUHjgUdVSMX/2DDIzM22+D2mvkGiRAlYKcCb6AnUBvVFUwQJnNFo29bCVUqRFp8Brw3viX70pydcuMHfJCpvvRdorJFqkgJUCnIm+7CHHyKo5jexJKdJyazh0fEhtgvv+hx/bNa60V0jMSAEr4TgbfdmDYmpsKzRdiexJKdLir4P3nh1GaGRF/ju8l9jYWLvGlvYKCUgBK/G4K/oCy1QiM/akFGlpXTWY555Sm+AWZmzNj7RXSKSAlWCcjb4ys+GVHdBqWW4paWvklNPJ1xfS3pQiMzoFnn76KYKDg1m1ahWnTp0qeNB8SHtF6UYKWAnG2ejrUqq6396r8GchAqYtp6PF3pQiLdHR0Tz44INkm5rgOoLv2CuyOL/uTUZ0r094QCPeOWr7rqtbEEn8/fkz3NeyCoFRD/JbIb8XGwci/pdHqBlUneFrr2G0ubmrxs1FClgJpShrX8dvwsUUCPaDOmUL3q5GGaPp/7ynkSMpRVqef/55FEVh9tx5JCba2Dgf3mSvEEkH+Gp8b26LLktkVBQRkdVocufjfH7UQLlm9/No7xCSs2x+3d2HEswtPYYxoEYqhqJGp0IghMBYQFURt41rQgpYCaUoa19/XVVjq6hgqBdZ8HYVgtWTNjwobwTmSEqRlqr1mhDRqCtpKUm8O2tR4Rvnw2vsFYbTfN6/DSO+Lc/rsZdJiI/n2uHPaLr/G74/kUlotdtolF/dXYSIX8fgBg/wq83IJoCoOg2pVyHQ1oY2UIjqvZB/M8/zdb+KdoiJ/ePa+16kgJVAihJ9ZRlzS0hXDoUaZQre1lzQMP8aGNifUqSlXBD0HqkaW2fP/BSj0bEoxRvsFZmnvmP67+nUfuwl7q8XggIEVO7MwGYR+CmWn5PLEGkc+fptVp33imvlouHAe5ECVgIpSvR1IyPXs9U6Wo2mCsJ8F1KnWG5kb0pRnjkqoH+kH/6VG3Dj/EkWLltd+GStUOz2iqxMsoH/tu/gvHmJSynP/RsusK5vQdfj2VyP/YRHe3agQ8fWxFQKJ7rFKBYeSwcM/LfuXR7tXouQyLuYtkDPkHbVCFIUyjR+mG/OGoBMTnw+ggEv78CQspZRLWKIadKb9+MybM/XmMThVW8ytF01ghQ/yrcYzXdnc39JIuUI34y/i0Y1b6V29YpUb/sYC+JSEAhu7p3N2L5NiAqsz+sHcsfKvraV9x5sTZO2XWlVTUFRFJTg6tRr9gALz2bZGNex9yIFrIRRVN9XfIaa9mO+JCsMbVOP/DiSUqSlTqSO1g+otcLe/dB+S4WW4rRXBNYfxvg7Qsnc8iRN2z/M+z/8Q3xW4fuIhJ94tNezfGF4gZ9id3P4+FoGXvyS/3t+IwmAElKFKoZLpN88ROyF2gx9byk/zhxCZNwixul3kkIgdZ/4kkUjKkHIPSzad4QjB37mxUZBhQ8MkHqIbefrMuqjZaz6dDChf81jzKvbSALIOsdXg9vxyPZOLNh/ilNn9/Nx9ZU81udVdqUohNxyB/+7M4gEQ3bO7Ryy/uXLwXfx6omHWLF1C7sPbeLJKkCdp1i7ewUP1/S3Ma5j70UKWAmjqL6vA9chydxCLarwbQ/FqxHYyZuWp5EjKUVa/HXw1jMPo4RGcmLvFrbu2GN70lYoNntFQB2eXHuA1foBVD+4iJcG3E756t0Y/+1RUgtY51bCWvDM5/NY+HJLQgElPIaOt0La2VPcyAqg2h0P0CemDJRpz5hnR3B31070fvx1xjSA60dOk1SU+wFl2jL6qf/Rs2NH+j45hWcawY0jR0nIhvR/PuH1dQZ6T36adpE68KtKr5Gt8T+3nK/j0gis2ICmdSPyLCAYr2/li9/TqdO/D7WCQIloxaAu4XBmF2fT7RvXEaSAlSBc4bo3+77KBan7FUZalvqNTMu2jMAcTSnS0v7WcGr3fhSANz6YYXuHAigue4USUpt+k77n0LXDrNLfx62XtzB9SBuGLL2A1eECq9F96EjurryPOS+NpH+/kUw/CAgjBd7b0wUSFggYswvexlF0wZQNBoxGhMjm6u7N/EsquybeTefOnencuTN3Tz5FxcpRZGUUoJrCiBHIzjTPy4ghMxsq1KNigPVd8o7r4JQd21zizRQ1+krPhr9MC+31IqFCcOHbCyu5kGYcTSnSEuIPrz73NIqfP7FrLZvgOoKn7RXpp39h2W//YQB04TH0n7SK/duf41YSWT0nlhtWxjLe3Mm7vW+het95xLd9gYWrvuS5Jq6bk3MIjFnZQF1Gf/U727ZtY9u2bcTuPcGFiweZ3dn6CaWr0I3HegRz6rvF7E0UZF/8lXlbFbq8+ASNbZxPziAFrITgiugrIV31gAG0qpi3hZozOJpSpGVYu5r0u7c/WYZMZs+2bIJrL562V9zcrueRF9dyKSfUUijb+A4aB0NYxUgCLT7TbC4sf4ZXfoFHVixDP7Ax5fyL8MFnZWBwiSD7U6FZa6I5wbpN57GxjKfZ7RZGLd/K7A6rubtZV+59chV1p+9g7dg6FBSAFYgd70UKWAnBFTmPl9NUt7y/lRZq1hBYz4U042hKkZZAP3hxgmqpmDPHehNce/G0vSL9xHp+O5GMERCpp1n31kR+NjRl/CsdsXSAKQSEheJHJimpWQgg68pf7Djv6Kg6AkIDwXCA9XsTMBrTScoompKFtXmR17sEsnfCA7yw7B+upGVw8+xOvpv8BG/sKPiXqCtbhdBL8dQZ9xlLli3h3WFNCHdIkx14L0Li82QbhXgxVghm5v1X9yshLiTbf5wFh9T9KswX4p9rtrd/b8tyUX8SotPMB6y+fi1NiGbf5Z1T+FwhYi/YP6e2bdsKQMybN8/+nQogI0uI13cJoZtp+VnFLBHP/fUKAAAgAElEQVTiSHyRhxDJf38ihneqJ6ICEAQEi+AyVUWzfhPEor9uiGyRLo7MfVTcUcdPAKJK+wfEm3tShDH5H/HJgDoiPLKRuPuRZ8VrHy8Rn91dRkB10fWxT8U3rw4QzSMQECZuHzxNHEi6KFY/e4eoDgJdbdHrhV/ElWwhkvfoRYcIBJQRdToOE58cTCtgliliz1sDRQvTMZs9NE0cSL4qfn2+u6gGAm4Rdzy1XJwzCJF9Y4+Y/XgXUTfKX4BOlIu5U4z++FdxNs0gLvw4XvSJCRSAiG47SEzdl2o6fKx4shIC1b8sQmq0FgNf/FocTEq2e1x734sihKPLZhJv4/hN6PJ93stHHTC1PbzUwr5jCGDsZpgTp1Zi/fMB9U5kYby3ZTlfbHqQ6OhBbBu7zOL1LCM88DP8eDr3OQVYfCcMs/Oy9ttvv2XIkCHENGzEoYMHrFo2HCHZAOO2wUIrjZA6VoGVva1Xn5XYR/bFH3jyjic4NGQFK8bWJul0HDvXzOa1KT+QOnITpxd1sxKFOo+8hPRxXFXvK8UAceYWalG2xQugTIB6CVkuyPpp5GxKkZZ+AwYRUakGRw7F8d0a601wHUFWr3An2Zz/4U3mH6nPuDGdqFK+GvVb9WKEfi7vdFBIu5lmO+HbQaSA+Tiuqvd1MwP+NXm0mtux/gVwS7gavNcpW3BU5ExKkZbgQH/q9VONrW9+MM3+HQvBd6pX+Bo6wmvWIpw/mbn4ACkCwMiNnXOYcboTk6Z0w4Yzx4kRJT6LK6utlglQL6Fql4U7q9u3j2Jy+ugKuV3pTEqRFn8dvD1hNASGcjj2Z/YeOGLfjjbwpuoVJQeFcnfN5se37+HGO+2pWb813XrdzYi5Ol7Z+jMvNAlx+Yj+Lj+ixGO4stpqRBDM665ePpW3IwMFND6wAu5CQm5K0VlNVQFzSpE1m4U1OteN4taeIzmzbjavvPMJv37jvK3CjNZeMWKDejfSjNleUaMMDK5X5KFKF34V6f7qSg686pnhZATmo7ij1n2ov3p55WfnWVFYNQozzqYUaQnxh5cnPAuKjt+/X8zFKw4sohWCN1SvkBQNKWA+ijtr3dtLfLoagV1PL/g0KkpKkZbBHeoT2bw32RmpTJo+z9GpFkixV6+QFAkpYD6IOzsNOcK5JDUCO5VUcARWlJQiLRFBMGqMamz9bp59TXDtRTYH8V2kgPkgro6+jAKupILBwXvcOZeQonBvVlFSiswowCtDenJrTFOSrl1gxQrbTXAdQdorfBMpYD6GO6KvH05B06Xwgn0tGbWzAUAUsogPRUsp0hIdChMnqE1wP/nkE8d2tuf40l7hc0gB8zFcHX1lGWHZCfUSaedlx/YVhRQ01OJMl6KCGDp0KBUrVuTPP/+0uwmuI3jSXnHihCeK9JdspID5EO6Ivm5kwGHTInVzK2tVhVFYOR0tznYpskZISAhPPul4E1x78VT1isWLF9OpUyf++++/oh+sFCMFzIdwx53Ha+m5JaTbVHJsX5FTSq/wCMwVKUVanhj7FIFBwaz8fhUHjtrfBNde3GmvEEKg1+uZPHkymzdvpnp1O13DEqtIAfMR3HXn8R9TCemygdCwnGP75pTTseM0KmpKkZYKFaOp2vlBhDGbV993rAmuvbjDXpGZmcnIkSP5+eef2bFjBzExMS6bb2lFCpiP4C7f11+mFmpRQVCnkB6Q1qhbVo3A2lS2XSGiqClFWoL81Ca4KAo/fzuPqwlOXIvagSvtFfHx8fTq1YvU1FQ2bdpEdLSNjikSu5AC5gO4K/pKy4J9JgGrF2l/CpEZP0WNwEIK671mwtkuRQUxtFsTyjbsSlZaElNmLnLuIHbgCnvFqVOn6NixI61atWLZsmWEhLg+J7C0IgXMB3BX9JWQASdMJaRbR6trP45gTyqRGVekFGmJCIJhT6jG1i/nfEp2tvv8DUWxV+zcuZNOnToxbtw4PvzwQ3Q6+ZVzJfLT9HLc6bq/lKoKiL0lpPNjr40CXJdSZEYBXhnVj8AqDUi6cJLPvl3j3IHsxBl7xcqVK7n33nuZP38+Y8aMcev8SitSwLwcd+Y87r2iuu/LBUEDBxfwATKz1UvILGH7NHJVSpGWqmV09Bii1gp7z8kmuPbiqL3iww8/ZPz48fz666/07dvXrXMrzUgB82LcGX0JAbtNPSArhMCtTtT5PWPKhfzzsn3Xnq5IKdKiU+CtZx8msEwkF/ZvYc8e55rg2os99oot57IYM2YMS5YsYceOHTRr1sytcyrtSAHzYtwZfSUbci/fbi8PYQ73vAKDKQIzGO07jVyVUqSlWbVw/m+02gR3xgznm+DaS6H2ivgk7r6nH3HHz7Bt2zaqVavm9vmUdqSAeSnurjgRr1nAt7eEtCWm0MnO1X9XphSZ0SnwzLin8ff357vvitYE116s2itunIdpnUkpeyvZT6wh1c+VrSskBSEFzEtxd72v04lwJU0tFujMAj7YX43CjCtTirTUrFmT/v37k5lZtCa4jpDHXvHf3/BRe2gzDB6azc4r/rJ6hYeQAuaFeKLe154ravxULlA9rjPkdOSzMwJzdUqRlmefVS0VM2bN4WZKetEPaAfRIfBgxk/4z+oF90+DHs8DsnqFJ5EC5oV4otqqOYG7Whmo7uwxTcnc2Cino8WVKUVamrXpSPmYtty4fpW3Zi8p+gHtYPbs2bw27jHmfrua6p3uz/OabA7iGaSAeRmeqrbaqwZ0rgovNFfXdJzBaGc1Ci2uTCnSEhoA/R8eB8D8z6bjzn7NRqOR559/nk8//ZTt27fzcJ92bq9eIbGOFDAvw1O17gfVhfX3wP11nD9GZLAqEreG22/hd3VKkRkFeGP0IPzL1+DGmTgWrCp6E1yDwcC+ffvyPJeWlsaDDz7Inj17iI2NpXbt2rI5SDEiBcyL8GSte52iWicKaelok6ggNQJrGGX/aeTqlCIt1SMC6PaQamx91wXG1jfffJPHH388J5q7cuUK3bt3JzQ0lF9//ZWoqNwFPdkcpHiQAuZFeEOnIYdwcBEfXJ9SpEWnwDvPP4ESFMbJnevZtPew08fau3cv7777Lvv27WPDhg0cOXKE9u3b07t3b7788ksCAwMt9pHNQTyPFDAvwVs6DTmCeQ1M58AivjtSirQ0u6UcMb2GgxC8/t6nTh0jNTWVIUOGYDCoC3NvvPEG3bp1Y9KkSej1+kJzP2VzEM8iBcxL8FT0lS1UA2tRvVfgWDUKLa5OKdLir4OJL44HRcefaxZz/brjHo0JEyZw7NixnMe7du2iRYsWduc0RofAp53VGxZapL3C9UgB8wI8GX0dvA49f4R71hZdxC6lqIpzIN4xAbOWUnQ93fL9O8v97epzR6/eGNJTmTfPsSa4v/76K3PnzrV4fv369TRq1IgffvjBruPUi4R53aFqvj8+0l7hWqSAeQGeXPvaeA7OJKlikVBEv2dypnoJ+W+yY6eRtZSim5lFSynSEuwPL08wGVtn2N8E9/r164waNapAC8b169dZvnw5iYm2ld/cY2B2VyibL89U2itchxSwYsaT0VeWEfaYKrCWC1JrXBUFoQjzDw7tZy2lKDEzNzfTFfTs2ZOmTZty4YL9TXDHjh1rNZdSp9MxaNAgDh48yNdff03ZsvZ9cDoF7q4J73WQ9gp3IQWsmPFk9HUjI/duX/1Iy8s4R8lpq+bAIj4UnFJ05EbR5pOfp59Wm+B++NHH2LpaW7x4McuWLcvznFm44uLiWLZsmVNNOPx08PBtMKG5tFe4AylgxYin7zxe0xhG21ZyvIR0fhypyJofaylFe68UbT75eWjIMMqUq8hf+/ay5KeCm+D+999/ObmUkCtchw4dclq4tAT5wcstYJiVw0h7RdGQAlaMeNr3dcDUQi1A53wFCi3mCMyZ08haStHpxKKnFGkJDQmm5UC1Ce7bBRhbjUYjI0aMICEhIUe4Dh8+zLJly2jQwHV/RcoGwnvt4U4rbSClvcJ5pIAVE8Xh+9qrWf+q72ALNevY19jWGtZSihIy1LxIV6FT4L2Xn0IJCObollXEHrRsgjtt2jS2b9/O8OHDc4Srfv36rpuEhsqh8FlXaa9wJVLAiglPR1/aFmrRIZaL6M6gM7VVC/Zz/DSyllJ000UpRVpa1o6mXvcHwZjNa+/PyvPa8ePHOXbsGHFxcSxevNhtwqVF2itcixSwYqA4oq+EfBVYQ/yLfszKoeo37c5bHI/ArKUUZWTnlvlxFf46mPSKWqdr24p5nL+Wa4GoVasWc+fOpV69eq4dtBCkvcK1SAErBooj5/Fiam5009IF618AOpONIsTPcQErKKXoHxcUN8zPgE5NqNCkK9lpibz26aKc5/39XaDiTiDtFa5DCpiHKa6cxz2XVR9YmD80yy8cIonDe59hzNwqNHrvQXZk2HdMZ3IhtVhLKTp43fWXUCH+MPop9S7jynnTyXJjE1x7kfYK1yAFzMMUR/SlbaFWLhjq5C8hrQRTtdYwekakkuXId9uJahRarKUUXU51XUqRlgnD+lGlZh2SLp1m3dq1rh/ACaS9ouhIAfMgxRV9JWlaqNUqa7mADAFERDXk1lDLEjGFkZZtqpOV6pyAuTulSEtUqB8vP6dWbJ0+3b1NcB1B2iuKhhQwD1Jc9b6up+cu4LeoULQihlqupKqXkLGXnDuNPJFSpOXhhx8mIiKCzZs3u70JriNIe4XzSAHzEMVZ7+tUourC1ynQMtrGxiKJk0fe5Pn51Wis96PN3NGsu2E9BDCaLiGzHcyFNOOplCIz4eHhPPqo55rgOoK0VziHFDAPUZzVVq+nq8IQGWj5V94CwyH2JNZlQK9lfNZnMCEX56H/bRvWmmcbnehKlB9PpBRpeerpcfj5+/P1t9/x10nvudUn7RXOIQXMAxR3tdU7qsHohvBqK+uCkYfAtgxu8z863tKRrq2mMCIaEq8d5abRclPFwca21vBESpGWmjVrUqtTf7INmbz6vmea4NqLtFc4jhQwD1Dcte4rhMDMrvDc7eplm90owZTxJ7f/Yz5cEYF5IqVIi06BCc+ploqN383hys009wzkJNJe4RhSwNxMcUdfZgJ0Ra8+YUERqlGY8VRKkZYRfToSWb8NWYlX0c/62n0DOYm0V9iPFDA3U9zRlzsx18R3tKChFk+lFGkJ9YdHxz4DwFdzppOR5X2r49JeYR9SwNyIt0Rf7qJsoHoJ2bay86eRJ1OKtLz06CACy9cg+d84PltR9Ca47kDaK2wjBcyNeEP0dfA6fH/K1qJ4KnFbR/DWoWuQ+RPvrZnO8cxrxG4cwWcXgEvv88rPK7iUbyks1F99IqZc0U4jT6UUaalQJoC+w9UmuB9N8x5ja36kvaJwiiebtRTgDdHXjQwYswV2XYYFd8DwAscNpVGXlXzfJe+z9Xr9ztZeBR+/KBVZtZhTihI0OZjmlCLLrAHXoABvP/8Ea+e8xcXd6zl8+DC33WalI20xo7VXDN8AiZo/RGZ7RY0yMNhzBTW8ChmBuQlviL4upqj9FrOM7vkr7WxfyPx4MqVIS0zVcjwycjhCCK8ztmqR9oqCkQLmBrwh+gI4EK/mQZYNhAYuqcCal6JWozDj6ZQiMzoFxj/7DIqi8OWXXxIf76L24G5A2iusIwXMDXhD9AW5FVijgtW1FFdzPU2NwNaeLVoE5umUIi0xMTH07t2b1NRUPv/8c/cPWASkvcISKWAuxluir9Ss3JSc+pEQVcQWatbIyFYjsGvpRT+NPJ1SpGX8+PEAfPzJDOLdlQLgIqS9Ii9SwFyMt0RfNzLUuQC0iXaDiRXX+MDMeDqlSEu3Hj2JrtuUq5cuMGWefU1wixNpr8hFCpgL8ZboC+B8iupm99fZUYHCSVx1FxI8n1KkJUAHgx9Tm+AunPkRGT7w5Zf2ChUpYC7EW6IvgD1X1LuPUUFQP38FVhchXJALaaY4Uoq0TBwznICISiSe3Mu8NQU3wfUWZPUKFSlgLsKboi+jUAUMTC3Uyha+vfM43xcyP8WRUqQlumwQvf43GoAPvdjYqkXaK6SAuQxvir6SMiHO5AhoVkHN/XMH5ghMccFpVFwpRTnjA1NfUpvgnt2+il/2WTbB9UZKu71CCpgL8KboCyA+A06aS0i7af0LwM/UVq1qGdfcISiOlKI849eMpmlPtQnuGx/Osr2Dl1Ca7RVSwFyAN0VfAMdvqlVYw/yhuZWoxlVEBKnK0teJxrbWqFFGNbVqcVeXImvoFHh7otoE9+/V87gcn2hjD++htNorpIAVEW+LvgB2XzaVkA6yXFdyJQrqJWSAn2tOo0grjnxPpBRp6d2uCR06dyUzJZGlSxZ5bmAXUBrtFVLAioi3RV9ZRthrcuDfWhaqlXHfWK60UYCaE3lLMaQUafHTwQumiq3Tp08n2wua4DpCabNXSAErAt4YfSVkwDFTCk6LCuDnBgOrGVflQpoJ0Fk68j2VUqTl3nvvpU6dOpw+fZq1XtIE115Km71CClgR8LboCyDTqLrX/RVoW8m9Y6WbGtueuOE6lWxYzvI5T6UUmdHpdIwbpzbBnTZ9OgbrLQG8ltJkr5AC5iTeGH0BVA6BDzuCvg30runesZIyVQHb8J/rBOz2Cqr4avFUSpGWkaMeJjQ8gi2bN7PoF+9pgmsvpcVeIQXMSbwx+gL1xL2/DkxsBeWD3TuW2QcmXHgalQuyXL/xVEqRlrJlw2k/QG2C+940760VVhilwV4hBcwJvDX68jSuKmioJTJIvfmgxZMpRWYU4O2XxqH4+XNq03dsOeyb11wl3V4hBcwJvDX68jSuzIU0E+YPtYoxpUhL69tqEtO1PyIrk4kfelcTXEcoyfYKKWAOIqOvXHJsFC6MwBRFTX/Kj6dSirToFHjjRdVSsXP5HE5dT/f8JFxESbVXSAFzEG+Ovs4kwaQ/PXfXTrgwmVtL02JOKdLyQM+OVLytLdlJV3ltxhLPT8BFlFR7hRQwB/Dm6MtghMl/wpTdMHGXZ8Z0tZHVzC3hxZtSpMVfB2OfUi0VP34xnTSDD4YpJkqivUIKmAN4c/R1MxP+MjnwQ/w8M6a5se3IGNeeRt6QUqRl/MODqFClBqnn4ti6yTub4NpLSbNXSAGzE2+OvgAS0tVLSIAOVTwzpjkXskKIa08jb0gpyjOfkAAmjFOb4H76iW/UCiuMkmSvkI1t7cSboy+AYzfVKMVfUdeL3ttX+PbhgZaG0fwoihoNFcTVdPVyKvaiQoKNY/np1Fv6tgjzh0A/tTKFFgHsvKyKs4Jqt7BFiD8EuygaHT16NG+++Sbr16/nyJEjxMRY+fb7EGZ7xYVk2Phf3tfM9opFPaBMgPX9vQUpYHbg7dGXAPaZFu6D/S2F1l3ccsNIMPDSDh3pHjjRPzug/nMlforpnw6CdJbNT4xCtXH466IwtBqB2DqHpk98QvBQS1uFTrH8o6BTVENxmObzCQ9Un/8vWV17sqb9foq6TUEoqIn6TaIs53w2Sc1e0G4bUICQJ2ZaPmcEfjwFS6rDk40LnoM3IAXMDrw5+hLA2C2w5bz62KOmROGeu5CeJFuo/zBCWqEbAt3Gw7bPMexcjOHutyDMyu1SK1x1k/viXDLsvOSeY2cJ2HJBCpjP483Rl1m85hxUH9cuq/aAPGZH9YYsoxqtNa9oecfvYgrsvqLe2cwu5Kabn05dAwv21xGgOYa/AtXLQKXQvOMlpKtRR1ohpkmjyLVLGIy5VfdBlcnwQLUByM2MvPtlZKtmTO32RpH3cZGJrg8Ne0PcTxA7D3q97MqjexU63FsM01VIAbOBt0ZfRgGPb4IvDuc+17kqzO5mfzzkr4D/FL3F82KSnpQsVXQK4/55gv+uqRVZP7tLc1ydupalTLY8dubrelKzbM8tPRsG/wJbL+Q+F6CDpb2g90LL4xon6Uk25IqfQA0QC7sMM4+TnqWulQVZ+TYIoW5zNU095pqIZ3lj+E/ots5g9cfPUTsqV7kzsyHVijjntywkZkK26Y9DQQ74tGxstncL1EGiQRMIa+ackQ3mX1+2UPsk5OdQAvx42nIOCtCvlnqOeztSwArBW6MvAfxvAyw7nvvcw7fB/O6gsyIajqJM1mNXHcQK6lfET6cj8h37xg18U48da/mISXrqReQVsEyjepest5XtEzJUD1PnKhD1rn1zcYSqpv8bvq5n2qSmJJz6h8XfrWCp4ZjLx3I3YpKe1afV9cSCxGtedzXS9XakjaIQvDH6EsADP7tPvBybjDDNyfVrYMpkvd1dii68oGfUbzDoZ/jprMunkofAN/WMHqsaW1d/MZ1rL+ndO6CLMYvXY5vgWr61ObN4ze8OFUOKZXoOIwWsALwx+jKL1/cnc59rV7mYxAtNWzUXJnNrKbBL0SR9zuMLL+gZvQnWnVGruXb0gAfupSeGERRZifRTu5m2yvub4JopaeIFUsAKxNuiL2vi1SoaNvcvHvFS5+Teu5A1y6j1wbRoU4rM4vXTWfVmxNc9odbHerfMRUu5D99hwHC1Ce7nM6eTMtH9YxaVkiheIAXMKt4WfQng/vV5xat1NGwfCEFv6j0/IROubGxrjYigglOKMl7XM3GnKl4tKsI3PSHmE71b5mGNKS8+hV9gMPF/ruLcGe9ugltSxQukgFnFm6Ivs3it0nxH2lSCbcUsXgD+OjUCa1bRPRFYhJWcSHNKkflu45014Ote0MCD4gVQt1o0/xv8IMbsbOaPHObRsR2hJIsXSAGzwJuiLwEMtCJeWwcUv3gBBF+/DMA9P7mn2J//FD2N8hXhM3cpCvaHT7vA932gwXS9W8YvDGWynudC1W/9/H37SMq04lMogL/+T89rvfVcflHvptmplHTxAmmjsMBboi+zeP2gEa+2lWCLl4gXgNG0BqZzoxM/f5s1UOudKXo94ZYveZTmlSvTtWZNtpw9y8K//mJc27Y294l/Wc8rG2DDv+rv+G03za00iBfICCwP3hJ9+YJ4AW5ewldpHGVpBD2diNcsnD/brh0AHxw+ytUXXi902/iX9YzeDHHX1WTqr47CyfF6l8+ptIgXSAHLgzdEXwIY8FNe8WrnRZeNWtzR1CM/kUGWn31xdCkqiHsbNKBijTr8d/Y0E+cX3ATXLF5HE+CHvvBQfTWtasHhAndxitIkXiAFLAdviL7M4vXj6dzn2ldWI69ALxMvgLRIdYFqw33j3DaGn2JZ0qU4uhQVhE5RGDZaff/ffj6dZCuRoVa8lvSElrP0jG2sWkSWuDAKK23iBVLAciju6EsAwzdaitfm/t4pXgBZpkzvHZfdE4GlvabnlZ1wOD7v88XVpaggXv6/h/EPiyD50GZmrf8rz2v5xev2mXoAbisHD9ZzXRRWGsULpIABxR99matKfK0R0A5VvFu8AATu9YFlC0jLUtuC5Scu3vK54iL6k4+4+yG1Ce706dPJekMPFCxeoN5hdVUUVlrFC6SAAcUbfeUviQMwoDZsus+7xQvc78Qv87ae+d1hTnfL1w4UQ5u1wphiaoJ7cdt3rP3nYqHiZcYVUVhpFi+QAlas0Zc18Xr4NljR2/vFC9yTC5n+mp6Nj+qJf1kPQPhUPY3KWaYUXUyBiy/oXTZuUWlSrybNevSHrExeeX+2TfGCokdhpV28QApYsUVfBYlXcSVmO4WLK7KmTNTzzHa496e8VSWspRQlZsJ/KS4Z1iUoen1OE9wja+Zw5Ep6oeJlxtkoTIqXSqk2shZX9GXN5+Vz4kXuJeTKUwq/1dYX+XhZX6u/i5bR0ElTVcKcUvT3tdznbmbCyZvQusijuo6eXToSUa81N4/v5v74Jdw+8z+b+/hP0TP2aT3LjqtR2KPj9dSZpi90HyleuZTqCKw4oi8B9M/n8xrewPfEC3IX8auE6SgXhNP/Qv3VCOR8iloS+7tecKumqkRBKUXetJAPanONvqPUKGzl1FdzGv/awpEoTIpXXkptBFYc0ZdZvFZrrBKdqqjtq3xNvEDtLwjwQx+oVNa5YxiM8OIfcCRB9XvVLmu9JI61lCJtROYNhL6l50ujke1lyxJ39SobT5+mZ+3aNvezNwqT4mVJqRUwT0df1sSrQxX47T7fFC8Akah2mo36bBqR9hWhtiDtNT0C6FNTdd3nb9ZhxpxSlKmp03/iprroH/yW3qmx3UGATsfY1q155bffmHbtOl0WLrYrg8Ichc09qEZhU/O9LsXLOqXyEtLT0VdB4uULVonCcEUqUbA/zOgCS++CaoX84bCaUqTpRu5NjG7ZkqCQUNb/vJ5PNxyxa5/C7khK8SqYUilgnoy+Sqp4gfPJ3Gmv6dk7Vk/qa3q1qsTbesq8rS90n6hg9fJSyw1TcUNvIyokhO4DR4AQzPj0UzJf19u1n7W1MClehVPqBMyT0VdJFi8AY6hqkT8/5kW790mZqOfZ7dBzdd6OQ7YI8bMUsIxs+3pgFgdTXnwGFIX/fvuSX47Yd7chfxR2YrwUL1uUOgHzVPRV0sULINOoLkjNi7PvNEqZqOe57bDgEDQtD80caJxaUJei/V7myDfTqmkMjTr2RmSmop/+ud37aaOw/9sixcsWpUrAPBV9lQbxAjCanPgZRtunUY54HVY7By2+Eyq/r3doPGtdirwtpciMotcz8cXxAPy9Ygb/jJlo137aKOzXc1K8bFGqBMwT0VdpES8AxdwXUil8Fczwhp43/swVr6/uhFs+0js8nrUuRd6WUqRl8D09qVS3KcYbF3jj8xV27SMm6Tl+Q7WX5EeKlyWlRsA8EX2VJvEC++9CZhkhPh361nRevMA3Uoq06CbrefrppwH49ctpXLHRBNe8YP/EZkgy5H1Nipd1So2AuTv6EsAjv5ce8YLcS0hb5XTMVolvezkvXmC9S5E5pchbefbx4URWqETayd0c3lNwE1x5t9E5SoWR1d3Rlzkxe5EmDaRjFfi9BIuXislIYeUSMu01PYcTIKYchOr1TnbDXZEAABMQSURBVNpc8+I/RU+j3vo8RR+9MaVIS9h77/B0wwa8ufUyM58cTddBgyy2keLlPKUiAnNn9GWtqsT/6pfsyMtMQfXAzFaJPmtg92XXjukLKUX5GdO6NYF+fqw6fJgzN/L6PqR4FY0SL2DujL4KKomz5E4IKOHiBYDIBuDuW/1yntJaJWLKqf9cibUuReaUIm+lSpkyPNS4MdlCMPPPP3Oel+JVdEq8gLkr+hLAo7/7eD2vopKlrjT3Xqx2N9RaJdpWgi97QCUHrRK28KWUIi3m9muzDh7ij1ETpHi5iBItYO6Kvsx3Gxdq1rxKnXiRt7Ftxut6Xt2pileraNXndauVqhJFxZdSirQ0r1yZ29p0JS3pJs9+uFCKl4so0QLmjujL3PpMe7fx/jqlT7wgby5kZjacuqmK11d3YrMon7P4WkqRlgnj1Vph+3btYORvUrxcQYkVMHdEX9b6NnaoohbgK23ilZ/wqXq+6gnr+0G96Xq3jeNrKUVaRgy6l36f/Un2qG+5mZn3NSlezqEIe8tG+hjHb0KX7/MKmA6Y2h5eauH48ayVga4cCo/EgL9pDbtiCDxUDyq8qwfUkihLT6jRiZYaZWBofXLqWB1+Rs/Kk6rhU0udCPV4AVPU7fY/pVoIjPl+Y80qwH211C83wJ6xetaesXwPraPh7kX6nMd/PKnn13/zbqOginLPBep2WW/o2XQetl+03O679X4IYWRs/2z+r6mOdWfhr6t5t/NToGcNaDdHPV766+raT37rg7+i3k3MyIa1e/RkvK5n2QlLj1eATr2MHLsl7/O1y6qVbXOOp4NBdaDBJ+q4qRP1fHkULuf7gxbqD6NiINq0Vpc8Uc/Cw3A9X3QUHqhuV970u41/Wc/io3AjX/2yqGAY2QAi3lG3O/Wcnm+Pqc76JAMsPiIjL1dSIn1gro6+rIkXqMefui/3cZAf1I+AXqbH3x6H13dZHq98sComTQGh17MgFj7623K7KqFqc9u6QPYbemZugfmHLLerXVZdNK8CZL6u58ONsPSE5XbNKkCnV/VETNWTMlHPGz/Bb1bKtneoDJ1e0xPylp5kA7yxC3ZasUPUNxlZjehIyICJO617svZfA3MiTUK6ut0JK+bTuhHQsbL688UUeD4WrqRZbjegtppSlKARj1OJMHl33u0ysuFN088H49XjpWbl3cZfUY/1uOlx7EV4drvlH4lAHdQIgwdNjzecgwnbIX/GT7AfNIiEu0yPlx2H16ycA2akeBWNEilgrlz7EsD9+cSreQV4tSWk5PsyVApVDaxmnmyk1njPyBeBVQuDhqYa74pezwsv6mkVbZn/dms41DI5z/2m6Jnygp7u1dSGr1rqRahjg+o9e3+CnntuzV2jMtOkPJQNVH8O9YeZXWD3lbzbKKjrWCFv6QF1+1ld4R/NJVpSJiw6AnsRtKioCkr5YHXhPr+A+SmqCGP6ElcMgS/uUAVHi05RRTg6BNiuRqkrelveXQzUqUndwzbkFbBAHTzXLNe2EeQHd1QH1quPm1eEVX3gcj5BDPWHXjVyH3epqpbIvpHvEi8iMO92fWvCyj6WKT9RQdCtWu7jR26DQwnwVb7zEaR4uYISdwlpFPDKDng/b4d36kbA1gGOCZhZvFZpxKtFRYgdiFeVMfYk117SM24bLDsBt1eAr3tCjOkyzVNkvaHngZ/zrkUqqAI67FvPzqUwpFXC/ZS4RXxXRV8CeODnvOLVvJSLV9KresZuUS9Pm1WAb4pBvKDgLkVHvOhOpBQvz1CiBMxVa19m8fr+ZO5zzSrAH6VYvADSsuBiqrp+93Wv3AXy4sBaStHeK5bPFQdSvDxHiRIwV0Rf1sSreUXYcX/pFi+ACiHwY1/VKtHAjVYJe7CWUnQ6Uc0GKE6keHmWErOI74roSwCD8olXaV/zSnhZz6lEuC0KQifribK9i0cwpxSd1SzyJ2SojxsW05ykeHmeEhOBFTX6EsCYLbBSI14to0u3eF14Qc/I36DvWvjTxVUlioq1lKKbmXAuuXjmI8WreCgRAlbU6MtcVWKuJjG7bSXYPqB0i9foTbD2jGppqOVk5213UVBK0eEEz89FilfxUSIErCjRl7WSOEPrw7ZSHnmN3gQ/nVXX/5b0hJpFqKTqDgpKKfrHwylFUryKF58XsKJEXwXV81p8Z276Tmkj2VQS56ez6vpfcVkl7MFal6KD18E4Se+R8aV4FT8+L2DORl8CGLmxlNfzskJ6ltqTsE2l4rdK2MJal6LLqZZ/zNyBFC/vwKfvQjobfVnrHiTFSyUqGH7oC346KGdKSPZWzF2KtClFN021waq6cVwpXt6DTwuYM9GXNfHqfUvpFq/4l/X8m6zmbYZO1uNAw+xixdylSFsTPzFTTRRv56YxpXh5Fz57CelM9GVNvFpFq0m+pVW8rryk55Hf4a7V3meVsIWnU4qkeHkfPitgjkZf1sSrdTRsL8V3G+Nf1vPUVlhz2jutEvbgqZQiKV7eiU8KmKPRl1XxqqRaJYJKQ/cgKyS+queZ7apxt5mXWiXswRMpRVK8vBefFDBHoi9r4tWmEmwb4HnxOnb9On9duuTRMa1hbsDx7TG1tpk3WyVsYbVLUUbeFKOiIMXLu/G5RXxHoq+CxGurB8Xr9I0brD56lOVxcQT4+bF+6FCPjFsYSZlq6ec2lWBhj+JPzC4K5pQirWCZU4qKmhMpxcv78TkBszf6siZebSvBFg+I16mEBNYcO8byuDhiz50D4PZKldg8ahTB/sX/kUcFq1Ul/HUQ6eVWCVuYU4o2nc99zpxSdFfBu9lEipdvUPzfJgewN/qyJl7tKsFmN4pX3NWrrD12jDVHj+aIlpl6UVH8Mnw4kcHBbhnbHtJe03MmCW77RI/Oh6wStlAm67l9oN7i+aKkFEnx8h18SsDsib6sildl2NJfrRfvSuKuXmV5XBzLDx3i0NWrVrepXrYsG0aMoFJYEdqAFxFzx+xf/oVV/6en+Wf6YpuLOygspchRe4wUL9/CZwTMnujLXM9LK17tK8NmN4jXc7/8wrSdOwvdpmJoKBuGD6dmRIRLx3YEs3gtOAydqkDV4tNRt2FOKdI68s0pRY448qV4+R4+cxfSVvRlTszW1vPq4CbxAvigVy8ebd68wNfLBgWxftgwYioU38WaVrw6VlGT1CuZ+h+WJMwpRVrMKUX2IsXLN/EJAbMVfVmrKnFHddjkJvEC8FMU5vXrx6hmzSxeC/b3Z/X//kfLKlWs7OkZMl7X88rOXPH66k64xQd9XvZgTinSYk4psgcpXr6LTwhYYdFX5TBL8RoZAxvudZ94AVxPS2PUjz+y5cwZ6pfPXYTxUxSWDBxI15o13Ta2PSRlwr6r0KN6yRYvKFpKkRQv38brBayw6Gt4A+v1vL64w725jd8dPEiTWbOICgnhwNixDGqoOo4U4PN+/bj/ttvcNra9mKtKrOhdssXLjDMpRVK8fB+vX8QvKPp6tCE8sw1WaNa83F0S51xiImPXrePsjRv88NBDtKmmtmAecNttvL1tGx/26sUjhayLuZvM1/VcT1e7dJckq4Q9mFOKMjXdzc0pRWFv6y22l+JVMvDqCKyw6Ov3/zwnXkYh+Gz3blrOnUubatXY+8QTOeIF0KJyZebccw/PtW/v8rHtJWWi2jG72w8QF19s0yg2HEkpkuJVcvDqCKyg6MtghA0ar2iP6u4Tr8PXrvH46tUAbH34Yat3FRVF4YmWLV0+tr1o7zZ2qQpVQottKsWGvSlFUrxKFl4bgRUUfQnynqTtK8NP97hevAxGI29t3UrXhQsZ0qRJgeJV3OS3SizqARXe0xf3tDyOPV2KpHiVPLw2ArMWffH/7d1/TNT3Hcfx54H8aKEiYKnK2G21oWrF6TBgVTSdRtvGLEu7ZOr6x7oc2pHpOky2NmMdicnSmM1mW3XGZvaPbVW6rrOGpAFX20Mrirv640RtFexJEfyBCAIC92t/fI9QBRTxjvve8Xr8c3fc9z73OcK98v5+vu/vF4wA6xOqJtWaxkZse/ZgnTABx9q1ZI0354Wyen5byqsHx0arxN3c7ZQihVd0MmWADVV9fV0owqvT7aZk3z7KTp7kj8uXs2rmzKCNHQrtvfBpEyzOhLe/N3bDq89QpxR5XyulXOEVlUwZYENVX31CEV6VdXW8VF5OgdWKs6iI9AfM/9ecnggfroCEcZDy+9JwTyfsBjulqLkLtp+C1w4rvKKR6QLsbtVXsMOr5eZNNlRUUOVy8dcVK1g+dWpQxg2Vrt+U0tQFU98wTlTOCPeETGSw/1LU2AnFB6Dbe+u2Cq/oYLpF/DtVX8EOr76G1NRAQ6rZw+vaK6X85CNY8gE4ikrDPR3TGeyUIp9f4RXNLH6/33/3zUaHzw+vVsOmowOfsz4Efy6AuCBE7pWmBraUFHG50cUvXn+Lx2fn3/+gIeb1w47T8EG98aXbNF9fvsFsr4Xd54d+XuEVXUwVYHVtsPD9wXcf42MgxnKfb+D34a3ahqe8lNin1jFu+SsQG3efg44OP9DrNW5jgPjYME/IpNw+I+wHo/CKPqZaA/ukcei1r6+fIjIil87AO4Xg98PLdjyTpuMB8N7thebjY+BukdyZwis6mSrAbj9KFBReN1S+Dva/wLO/g4KfgcV0S38SQgqv6GWqAJubMfCE3PviqoF/2iDNCr92QGpWkAaWSKHwim6mWgPr9RonaJedM+6PlLe7k7P/KKFpfxnTbJuZXLAyeJOUiBFjgbkPw89nKbyilakCDIxFarfXWOcZif/urWRd0UssWFjApj9sJi19kPZsGRMsGEet7/vgj5iW6QJspFpaWiguLmb//v1s27aNZcuWhXtKIhJiUbGavWvXLnJyckhLS8PpdCq8RMYIUy3i36uGhgaKiopwuVzs3r2bvLy8cE9JREZRRFZgPp+PLVu2kJubS15eHg6HQ+ElMgZFXAV2+vRpCgsLsVgsVFVVMW3atHBPSUTCJGIqMLfbzcaNG1m8eDGrV6/GbrcrvETGuIiowA4fPkxhYSFWqxWHw0FWlhpSRcTkAdbZ2UlJSQllZWVs3ryZlSvVkCoi/Uy7C1lRUUFOTg6tra04nU6Fl4gMYLoKTA2pIjJcpqrAdu7cqYZUERk2U1RgakgVkZEIawXm8/nYunUrubm55OfnqyFVRO5J2CqwM2fOYLPZALDb7UyfPj1cUxGRCDXqFVhfQ+qiRYtYtWoVVVVVCi8RGZFRrcBqamqw2WxqSBWRoBiVAFNDqoiEQsgD7MqVK+Tn51NQUIDT6SRdV0gVkSAZlSuyHj16lDlz5oT6bURkjImaS0qLyNhjqk58EZF7oQATkYilABORiKUAE5GINUQbhQ9qK+DE9Vt/HBsPEybBE7MhMyn0sxMRuYOh+8B8brhaBy0eiE2FjDhovQzdTjhoh6fXwLyJozhVEZFbDbELGQM534dnHjUeZi6FtUXwq2KYkQj0wid26Bm1eYqIDDC8Tny/F/xAzHiY+QicckH3dfD4IcES2KYHzh6Huia40QvJk2BuHmQk9I/T3Qz/OwZN7RD7IEx+FOZMh0QL4Ie2L+GzWrh6E8Z/A+bmQnp8sD+ziESJYQaYL3DbA+evGffTvt0fXr52eH87nOyA5HSIbYe2WvjsPKx7AVJioOcCbN8B14DxKXCjDU6chMmPwbfioL4S/l5tBGVyInTUwqHjYPspZCrERGSg4R2FvHoMyv8Df3sTjtyAcVnwwwX98ddVb4QXCfD8Wli/BtIBTz24bhrbfFVthFdqAaz/JazO7h+/ux7eqwZ/EvxoA2wohvkTwN8Me88YoSYicpvhVWDdLnDGgbfXeOxpgPIqeGEpPGiBpGmw+gdwA4i/ArV1/etjN92BdwpUUa0HYc8DMO8peNELj8RBwxHoAkiAL6uhAWjxGttfqgf3LFARJiK3GV6AffM5eDEHLD5orIYde+Hip1D1BDw9BSzxkNAN+w9AQ8fgY2QthbxLUNMMJyrhRDzMex6y/NDSGtioHU4e739NUhIkJww6nIjI8ALM3W3sxlliYMp3YPJe+Aq4eA38U6B5H7x9AIiDJ5+D+VZ49w2jkurT44G8lTD7Auz7CM61waF/QdbLkBhnbPNQLqx/BuKC/ClFJCoNbw3M09O/DuVuhfbA/fTxRlV24ZzxOHUeLJkFybfnohcc78Cb70LyTPjxGpgaC3jgeg9kBtbDbhyHz9v7X9Z1ET4+CO4RfjoRiWpDVGB+uPwFfB444tj2Bdjd0NsGZ51GgI2zwsJMIAYezgCaobUWjqRAi7O/+mo6C5dmBB40w147ZHTCBS8wER5LgYlzIdcBjjZ4709QbYVxHeC6DAkzYUEofwUiEqmGuB6YBz7eCvZrA59KSIXs2bD4SZgYWFn3dcC+f8Oh8+BLguwc8ByHc4EjkPk2yD4NHx6Dq52ABTKyYcmz8HiKsY23Aw5VwuFT0O6BhDSY8V1YmKdeMBEZlC5oKCIRS1ejEJGIpQATkYilABORiKUAE5GI9X/OOH3r0+Yt9gAAAABJRU5ErkJggg==;" vertex="1" parent="7">
                    <mxGeometry x="400" y="110" width="304" height="308" as="geometry"/>
                </mxCell>
                <mxCell id="34" value="The volume is 36 mm" style="text;html=1;align=center;verticalAlign=middle;resizable=0;points=[];autosize=1;strokeColor=none;fillColor=none;" vertex="1" parent="7">
                    <mxGeometry x="10" y="400" width="140" height="30" as="geometry"/>
                </mxCell>
            </root>
        </mxGraphModel>
    </diagram>
</mxfile>